<?xml version="1.0" encoding="UTF-8" standalone="no"?>
<!-- Created with Inkscape (http://www.inkscape.org/) -->

<svg
   version="1.1"
   id="svg1"
   width="720"
   height="1000"
   viewBox="0 0 720 1000"
   sodipodi:docname="Logo oficial.svg"
   inkscape:version="1.4 (86a8ad7, 2024-10-11)"
   xmlns:inkscape="http://www.inkscape.org/namespaces/inkscape"
   xmlns:sodipodi="http://sodipodi.sourceforge.net/DTD/sodipodi-0.dtd"
   xmlns:xlink="http://www.w3.org/1999/xlink"
   xmlns="http://www.w3.org/2000/svg"
   xmlns:svg="http://www.w3.org/2000/svg">
  <defs
     id="defs1">
    <color-profile
       name="Agfa-:-Swop-Standard"
       xlink:href="file:///C:/WINDOWS/system32/spool/drivers/color/RSWOP.icm"
       id="color-profile1" />
    <linearGradient
       id="linearGradient1"
       inkscape:collect="always">
      <stop
         style="stop-color:#2a2d60;stop-opacity:1;"
         offset="0"
         id="stop1" />
      <stop
         style="stop-color:#2a2d60;stop-opacity:0;"
         offset="1"
         id="stop2" />
    </linearGradient>
    <linearGradient
       inkscape:collect="always"
       xlink:href="#linearGradient1"
       id="linearGradient2"
       x1="-730.37073"
       y1="503.62262"
       x2="-0.64434212"
       y2="503.62262"
       gradientUnits="userSpaceOnUse"
       gradientTransform="matrix(0.8120403,0,0,0.8120403,-971.95517,161.5105)" />
  </defs>
  <sodipodi:namedview
     id="namedview1"
     pagecolor="#2a2d60"
     bordercolor="#ffffff"
     borderopacity="0"
     inkscape:showpageshadow="2"
     inkscape:pageopacity="0.0"
     inkscape:pagecheckerboard="0"
     inkscape:deskcolor="#d1d1d1"
     inkscape:zoom="0.504375"
     inkscape:cx="433.20942"
     inkscape:cy="498.63693"
     inkscape:window-width="1920"
     inkscape:window-height="1009"
     inkscape:window-x="-8"
     inkscape:window-y="-8"
     inkscape:window-maximized="1"
     inkscape:current-layer="svg1"
     showguides="true">
    <sodipodi:guide
       position="1174.1302,310.9821"
       orientation="0,-1"
       id="guide1"
       inkscape:locked="false" />
    <sodipodi:guide
       position="1257.2491,124.2131"
       orientation="0,-1"
       id="guide2"
       inkscape:locked="false" />
    <sodipodi:guide
       position="1087.2095,107.52461"
       orientation="0,-1"
       id="guide3"
       inkscape:locked="false" />
    <sodipodi:guide
       position="1063.5517,-77.35709"
       orientation="0,-1"
       id="guide4"
       inkscape:locked="false" />
    <sodipodi:guide
       position="1180.1735,101.41264"
       orientation="1,0"
       id="guide5"
       inkscape:locked="false" />
    <sodipodi:guide
       position="1033.5851,-92.42801"
       orientation="0,-1"
       id="guide6"
       inkscape:locked="false" />
    <sodipodi:guide
       position="1161.8632,-311.84057"
       orientation="0,-1"
       id="guide9"
       inkscape:locked="false" />
  </sodipodi:namedview>
  <g
     id="g21"
     style="display:inline"
     inkscape:label="Logo"
     transform="translate(781.80922,-332.93459)">
    <g
       id="g3"
       inkscape:label="r"
       transform="matrix(0.99757788,0,0,1.0024322,-795.60703,-2.7581262)">
      <path
         style="display:inline;fill:#e1ae43;fill-opacity:1;stroke-width:44"
         d="m 47.666183,986.26936 v 218.88024 h 51.543698 l -0.02216,-81.4895 h 16.823359 l 38.90401,81.4895 h 55.97581 l -40.20391,-84.9943 31.5438,-26.9875 0.35048,-76.7566 -37.15158,-30.14181 z"
         id="path3"
         sodipodi:nodetypes="cccccccccccc" />
      <path
         style="fill:#2a2d60;fill-opacity:1;stroke-width:44"
         d="m 98.837231,1029.0288 v 52.2225 l 43.810829,-0.3505 6.65925,-5.2573 0.35048,-41.7079 -5.95827,-5.2573 z"
         id="path2" />
    </g>
    <path
       style="display:inline;fill:#e1ae43;fill-opacity:1;stroke-width:44.3405"
       d="m -547.52328,985.99173 0.0198,219.33087 h 141.31669 l -0.69177,-42.2638 -88.45039,-0.3448 v -47.5277 l 60.37931,-0.3533 -0.70619,-38.6867 h -60.55586 v -48.4024 l 88.80349,-0.53 0.31911,-41.19672 z"
       id="path4"
       sodipodi:nodetypes="ccccccccccccc"
       inkscape:label="e"
       sodipodi:insensitive="true" />
    <path
       style="fill:#e1ae43;fill-opacity:1;stroke-width:44.3655"
       d="m -391.21922,985.91004 h 52.62347 l 0.59037,219.41256 h -53.33776 z"
       id="path5"
       inkscape:label="i"
       sodipodi:nodetypes="ccccc" />
    <g
       id="g7"
       inkscape:label="a"
       style="display:inline"
       transform="translate(-777.20304,-2.4430891)">
      <path
         style="fill:#e1ae43;fill-opacity:1;stroke:none;stroke-width:44"
         d="m 174.6486,973.1979 41.16355,-184.77823 65.81203,0.005 40.06107,184.80969 -45.74961,-0.078 -8.51434,-44.01615 -37.50207,-1.05146 -9.6897,45.06761 z"
         id="path7"
         inkscape:label="a2"
         sodipodi:nodetypes="ccccccccc" />
      <path
         style="fill:#2a2d60;fill-opacity:1;stroke:none;stroke-width:44"
         d="m 235.93556,896.65428 12.20898,-68.45437 13.31849,68.69538 z"
         id="path6"
         inkscape:label="a" />
    </g>
    <path
       style="fill:#e1ae43;fill-opacity:1;stroke:none;stroke-width:44"
       d="m -660.7614,970.85686 -0.49567,-149.81412 43.9989,-0.41063 -0.38056,-34.78144 h -130.85501 l 0.99132,35.68773 43.12268,-0.49566 0.49566,149.69021 z"
       id="path8"
       sodipodi:nodetypes="ccccccccc"
       inkscape:label="T" />
    <path
       style="display:inline;fill:#e1ae43;fill-opacity:1;stroke:none;stroke-width:44.2034"
       d="m -435.54906,582.4128 h 44.36342 l -0.70417,150.35664 h 64.78469 l -0.3521,36.26869 h -108.44394 z"
       id="path9"
       inkscape:label="L" />
    <path
       style="display:inline;fill:#e1ae43;fill-opacity:1;stroke-width:44.2651"
       d="m -747.33251,582.45405 45.56326,-0.002 29.44087,152.17619 30.84283,-152.08433 44.33652,-0.0919 -41.18214,186.76169 -67.64392,-0.17737 z"
       id="path1"
       inkscape:label="v"
       sodipodi:nodetypes="cccccccc" />
    <g
       id="g13"
       inkscape:label="O"
       transform="matrix(1,0,0,0.99461185,-1011.7158,5.6271291)">
      <path
         style="fill:#e1ae43;fill-opacity:1;stroke:none;stroke-width:44.4135"
         d="m 427.26146,608.20694 32.01279,-27.98837 68.11113,-0.29292 30.7311,26.26119 0.9097,136.35386 -31.5438,25.35447 h -66.94294 l -31.5438,-25.35447 z"
         id="path12"
         sodipodi:nodetypes="ccccccccc" />
      <path
         style="fill:#2a2d60;fill-opacity:1;stroke:none;stroke-width:44"
         d="m 472.45598,620.71183 4.20584,-4.55633 32.94574,-0.35049 5.2573,4.20584 0.35049,103.39356 -4.20584,4.90681 -31.19331,1.05146 -7.00973,-4.90681 z"
         id="path13" />
    </g>
    <g
       id="g11"
       style="display:inline"
       inkscape:label="COROA"
       transform="translate(-803.44896,-4.5265153)">
      <path
         style="display:inline;fill:#e1ae43;fill-opacity:1;stroke:none;stroke-width:43.4557"
         d="m 429.7249,855.10618 24.35599,-20.00645 c 11.68395,7.15592 18.47016,28.18877 37.22953,15.29765 l 0.0872,12.93793 3.21184,-1.93198 2.5655,-9.26927 21.38824,-21.18749 0.34497,-3.82069 -1.03492,-5.21005 -1.37988,-3.82068 -0.68993,-3.8207 -1.22628,-10.59324 0.70882,-9.63906 1.32447,-5.31951 3.67762,-7.09775 7.2444,-10.07276 6.20949,-6.25204 3.5343,-2.60786 4.9175,-2.86267 -0.70799,28.90758 c 51.74674,-5.47662 41.72855,16.71317 42.47467,44.73178 0.23541,8.8401 -17.82826,23.33281 -22.66785,27.1746 -27.00561,21.43776 -22.17845,55.86065 69.73135,54.35834 35.76836,14.17628 49.78592,2.92715 47.79955,18.06292 -33.89248,41.02816 -45.39469,54.60151 -84.60233,100.98092 l -4.43497,5.892 c -14.24263,-13.9665 -25.14577,-25.6032 -35.0903,-33.5787 -15.57052,-12.48746 -27.77349,-18.03446 -38.96453,-25.09725 -108.87364,-35.56652 -135.0945,-52.25711 -132.57343,-180.45664 -0.0551,-1.58018 0.98449,-2.87083 1.25504,-3.63684 1.74986,-1.77098 2.05716,-2.07363 3.98278,-2.23492 1.69406,-0.14229 3.47281,-0.38972 5.45452,1.62316 0,0 24.8284,42.66184 35.69941,58.90016 z"
         id="path10"
         sodipodi:nodetypes="ccccccccccccccccccccssccccsccccccc"
         inkscape:label="SOMBRA COROA" />
      <path
         style="display:inline;fill:#fefefe;fill-opacity:1;stroke:none;stroke-width:44"
         d="m 419.88299,847.76703 23.65785,-28.7399 3.6801,-1.40195 4.20584,0.70097 25.23504,29.44088 2.10292,1.05146 1.75243,1.05146 2.10292,-0.35049 21.73017,-21.37968 0.35049,-3.85536 -1.05146,-5.2573 -1.40194,-3.85535 -0.70098,-3.85535 -1.24587,-10.68934 0.72015,-9.7265 1.34564,-5.36776 3.73641,-7.16214 7.36022,-10.16412 6.30876,-6.30876 3.59081,-2.63152 4.99611,-2.88864 6.83449,-1.84006 6.39638,-0.13143 3.31786,0.1668 3.2748,0.81281 5.14864,1.25474 8.84979,5.2573 4.20584,3.85536 3.15438,5.60778 3.15438,6.30876 2.4534,8.76217 0.70098,6.30876 v 8.41168 l -1.05146,8.41168 -3.85535,11.91654 -3.50487,5.2573 -4.20584,5.2573 -4.20584,4.20584 -5.37066,3.86269 -0.99133,1.23915 0.24783,3.46964 7.34086,30.85827 1.40195,1.05146 1.40195,0.70097 6.484,-1.57719 34.69818,-7.18498 1.57719,0.52573 1.92767,1.75244 0.70098,1.75243 1.05146,2.80389 2.4534,30.14185 0.70097,4.90682 1.40195,1.57719 1.75243,0.87621 h 2.8039 l 54.19969,-22.47366 1.41918,-0.50463 2.11079,-0.36266 2.62663,0.39289 2.20557,1.56838 1.36125,1.84445 0.40909,1.91137 0.15734,1.50148 -0.35049,2.27816 -88.94375,130.54148 -0.61957,0.3717 -0.92937,0.062 -1.42503,-0.2479 -12.39158,-12.0817 -4.83271,-3.9654 -35.81165,-21.06566 -28.18674,-12.65211 -44.16131,-12.968 -36.10012,-7.53546 -16.29763,-2.27817 -15.59666,-0.87621 -7.09735,0.70097 -3.15438,1.57719 -4.38108,2.19054 -2.8039,0.61336 -4.4687,-0.61335 -1.92768,-2.54104 0.17524,-2.97913 -0.17524,-16.29763 -5.52017,-142.91093 1.22671,-3.41724 2.19054,-1.40195 2.80389,-0.35049 2.62865,0.70098 4.65014,5.06594 1.54895,1.79677 0.49566,0.99133 0.30979,3.28377 z"
         id="path11"
         sodipodi:nodetypes="cccccccccccccccccccccccccccccccccccccccccccccccccccccccccccccccccccccccccccccccccccccccccccccc"
         inkscape:label="COROA" />
    </g>
    <path
       id="rect23"
       style="fill:#ffffff;fill-opacity:1;stroke-width:47.0077"
       d="m -747.6712,467.50945 v 90.51945 h 436.0468 v 0.0223 l 0.027,-0.0223 h 0.1094 v -0.087 l 111.1426,-89.70129 -111.1425,-0.59743 v -0.13376 z"
       inkscape:label="sub top" />
    <text
       xml:space="preserve"
       style="font-style:normal;font-variant:normal;font-weight:normal;font-stretch:normal;font-size:66.2601px;line-height:0;font-family:'Tempus Sans ITC';-inkscape-font-specification:'Tempus Sans ITC';text-align:center;letter-spacing:0px;word-spacing:-10.7762px;writing-mode:lr-tb;direction:ltr;text-anchor:middle;display:inline;fill:#2a2d60;fill-opacity:1;stroke-width:15.1849"
       x="-556.64996"
       y="540.62085"
       id="text1"
       transform="scale(0.99010291,1.009996)"
       inkscape:label="texto subtopo"><tspan
         sodipodi:role="line"
         id="tspan1"
         x="-556.64996"
         y="540.62085"
         style="font-style:normal;font-variant:normal;font-weight:800;font-stretch:normal;font-family:'TT Autonomous Trl';-inkscape-font-specification:'TT Autonomous Trl Ultra-Bold';letter-spacing:0px;word-spacing:-10.7762px;writing-mode:lr-tb;direction:ltr;baseline-shift:baseline;fill:#2a2d60;fill-opacity:1;stroke-width:15.1849">ORFÃOS</tspan></text>
    <path
       id="rect22"
       style="display:inline;fill:#ffffff;fill-opacity:1;stroke-width:90.3887"
       d="m -748.58581,380.15455 v 71.49701 h 614.98633 v -71.49701 z"
       inkscape:label="topo" />
    <text
       xml:space="preserve"
       style="font-style:normal;font-variant:normal;font-weight:normal;font-stretch:normal;font-size:44.8169px;line-height:0;font-family:'Tempus Sans ITC';-inkscape-font-specification:'Tempus Sans ITC';text-align:center;letter-spacing:0px;word-spacing:-7.28883px;writing-mode:lr-tb;direction:ltr;text-anchor:middle;display:inline;fill:#2a2d60;fill-opacity:1;stroke-width:10.2707"
       x="-450.3399"
       y="436.73428"
       id="text23"
       transform="scale(0.98508639,1.0151394)"
       inkscape:label="texto topo"><tspan
         sodipodi:role="line"
         id="tspan23"
         x="-450.3399"
         y="436.73428"
         style="font-style:normal;font-variant:normal;font-weight:800;font-stretch:normal;font-family:'TT Autonomous Trl';-inkscape-font-specification:'TT Autonomous Trl Ultra-Bold';letter-spacing:0px;word-spacing:-7.28883px;writing-mode:lr-tb;direction:ltr;baseline-shift:baseline;fill:#2a2d60;fill-opacity:1;stroke-width:10.2707"
         dx="2.5488963"
         dy="0">NÃO VOS DEIXAREI</tspan></text>
    <text
       xml:space="preserve"
       style="font-style:normal;font-variant:normal;font-weight:normal;font-stretch:normal;font-size:66.2601px;line-height:0;font-family:'Tempus Sans ITC';-inkscape-font-specification:'Tempus Sans ITC';text-align:center;letter-spacing:0px;word-spacing:-10.7762px;writing-mode:lr-tb;direction:ltr;text-anchor:middle;fill:#f4f4f5;fill-opacity:1;stroke-width:15.1849"
       x="-536.62531"
       y="1277.9275"
       id="text2"
       transform="scale(0.99010293,1.009996)"
       inkscape:label="frase rodapé"><tspan
         sodipodi:role="line"
         id="tspan2"
         x="-536.62531"
         y="1277.9275"
         style="font-style:normal;font-variant:normal;font-weight:800;font-stretch:normal;font-family:'TT Autonomous Trl';-inkscape-font-specification:'TT Autonomous Trl Ultra-Bold';letter-spacing:0px;word-spacing:-10.7762px;writing-mode:lr-tb;direction:ltr;baseline-shift:baseline;fill:#f4f4f5;fill-opacity:1;stroke-width:15.1849">PARA VÓS</tspan></text>
    <text
       xml:space="preserve"
       style="font-weight:800;font-size:45.9151px;line-height:0;font-family:'TT Autonomous Trl';-inkscape-font-specification:'TT Autonomous Trl Ultra-Bold';text-align:center;letter-spacing:0px;word-spacing:-2.38663px;writing-mode:lr-tb;direction:ltr;text-anchor:middle;display:inline;fill:#f4f4f5;stroke-width:10.5221"
       x="-192.65321"
       y="1265.3268"
       id="text3"
       transform="scale(0.98537613,1.0148409)"
       inkscape:label="texto blíblico"><tspan
         sodipodi:role="line"
         id="tspan3"
         x="-192.65321"
         y="1265.3268"
         style="font-style:normal;font-variant:normal;font-weight:300;font-stretch:normal;font-family:Nevada-Serial-Light;-inkscape-font-specification:'Nevada-Serial-Light Light';stroke-width:10.5221">João 14:18</tspan></text>
  </g>
</svg>
